<svg xmlns="http://www.w3.org/2000/svg" viewBox="0 0 810.9 541.47"><defs><style>.cls-1{font-size:101px;letter-spacing:0.05em;}.cls-1,.cls-10,.cls-14{fill:#dadada;}.cls-1,.cls-10{font-family:BerkeleyLT-Medium, Berkeley LT;}.cls-2{letter-spacing:0em;}.cls-3{letter-spacing:0em;}.cls-4{letter-spacing:0.07em;}.cls-5{letter-spacing:0.06em;}.cls-6{letter-spacing:0.11em;}.cls-7{letter-spacing:0.02em;}.cls-8{letter-spacing:0.04em;}.cls-9{letter-spacing:0.08em;}.cls-10{font-size:180px;}.cls-11{letter-spacing:-0.05em;}.cls-12{letter-spacing:0em;}.cls-13,.cls-15{fill:none;}.cls-15{stroke:#dadada;stroke-linecap:round;stroke-miterlimit:10;stroke-width:3.58px;}</style></defs><title>Artboard 1</title><g id="Salterns_Marina_Logo" data-name="Salterns Marina Logo"><text class="cls-1" transform="translate(108.62 529.23) scale(0.95 1)">B<tspan class="cls-2" x="60.01" y="0">R</tspan><tspan class="cls-3" x="122.2" y="0">O</tspan><tspan class="cls-4" x="196.68" y="0">K</tspan><tspan class="cls-5" x="271.61" y="0">E</tspan><tspan class="cls-6" x="337.51" y="0">R</tspan><tspan class="cls-7" x="410.5" y="0">A</tspan><tspan class="cls-8" x="477.95" y="0">G</tspan><tspan class="cls-9" x="555.09" y="0">E</tspan></text><text class="cls-10" transform="translate(5.33 425.23) scale(0.95 1)">SA<tspan class="cls-11" x="202.68" y="0">L</tspan><tspan class="cls-12" x="293.76" y="0">TERNS</tspan></text><g id="Dolphin"><path class="cls-13" d="M499.73,85.72c-1.47,1-.89,4.23-2.48,7.45-4.38,8.84-10.61,12.9-15.41,19.45-2.86,3.9-3.47,12.69-3.6,15.42h0c-.79-.37-2.7-.85-6.9-1.42-12.61-1.71-18.53,10.27-20,16.53-1.58,6.55,1.86,15.46,3.73,15.52,2.44.09,1.93-17.37,14.65-17.37,10.67,0,16.17,6.65,15.64,15.65-.71,12.15-9.14,18.3-18.81,18.3-14,0-17.23-10.4-19-14.78-7.29-17.75-15.74-54.89-47.81-67.68-15.89-6.34-11.58-9-2.17-6.52C431,95,446.84,138.43,446.84,138.43S449,124.87,462.68,122c8.34-1.77,10.95,1.49,7-3.1-7.11-8.38-26.29-3.42-33.12-11.49-3.14-3.71-1.86-19.87,7.14-24.21,4-1.91-4.75-4.32-16.14-4S403.69,85.34,399,81.3c-4.31-3.74-4.35-10.24,1.55-14s4.93-6.43-.93-5.9c-20.49,1.86-33.22,13-53.71,26.7-5.09,3.39-7.76-1.55-14.28-4.66s-14.84-1.54-12.42,1.86C330,100.47,326,107,320.46,113.83c-10.12,12.51-3.7,35.46,1.55,41.33,6.08,6.8,5.13,10,2.62,13-4.29,5.26-15.29-4-19.14,2.52C303,175,325.84,188,341.29,165.13c2.37-3.5,8.69-11.8,12.11-9.31,1.12.82-1.58,4.22-5,7.94s-11.77,11.93-8.66,16.58c1.31,2,9.93.31,15.21-7.14,4.58-6.46,7.45-10,9.87-14.59,11.06-21,44.2,12.39,43.13,10.27-18.6-36.68-38.87-21.76-39-26.73,0-.93-.52-4.46,8.69-4.66,20.8-.44,32.6,24.53,36.94,31.36s15.31,29.43,46.74,29.43c33,0,39.53-25.6,39.53-39.6,0-13.39-9.8-23.9-10.11-24.84s6.79-6.7,10.87-17C505.94,105.9,502.47,83.89,499.73,85.72Z"/></g><g id="Diamond"><path class="cls-14" d="M651.9,124.86,417.07,14c-5.93-3.56-15.54-3.56-21.46,0L160.79,124.86c-5.93,3.56-5.93,9.32,0,12.88L395.61,248.64c5.93,3.56,15.54,3.56,21.46,0L651.9,137.74C657.82,134.19,657.82,128.42,651.9,124.86Zm-150.31-8c-4.07,10.27-11.18,16-10.87,17s10.11,11.45,10.11,24.84c0,14-6.49,39.6-39.53,39.6-31.43,0-42.4-22.6-46.74-29.43s-16.14-31.8-36.94-31.36c-9.21.2-8.72,3.73-8.69,4.66.15,5,20.42-9.95,39,26.73,1.07,2.11-32.07-31.3-43.13-10.27-2.41,4.59-5.29,8.13-9.87,14.59-5.28,7.45-13.9,9.11-15.21,7.14-3.1-4.66,5.25-12.86,8.66-16.58s6.12-7.13,5-7.94c-3.41-2.48-9.74,5.82-12.11,9.31C325.84,188,303,175,305.49,170.71c3.85-6.51,14.85,2.74,19.14-2.52,2.5-3.07,3.46-6.24-2.62-13-5.25-5.87-11.67-28.81-1.55-41.33C326,107,330,100.47,319.25,85.34c-2.42-3.4,5.9-5,12.42-1.86s9.19,8,14.28,4.66c20.49-13.66,33.22-24.84,53.71-26.7,5.87-.53,6.83,2.17.93,5.9s-5.87,10.23-1.55,14c4.66,4,17.17-1.83,28.56-2.14s20.1,2.1,16.14,4c-9,4.35-10.28,20.51-7.14,24.21,6.83,8.07,26,3.11,33.12,11.49,3.9,4.6,1.29,1.34-7,3.1-13.66,2.89-15.83,16.45-15.83,16.45S431,95,397.48,86.27c-9.41-2.44-13.72.18,2.17,6.52,32.07,12.79,40.52,49.93,47.81,67.68,1.8,4.39,5,14.78,19,14.78,9.67,0,18.1-6.15,18.81-18.3.53-9-5-15.65-15.64-15.65-12.72,0-12.21,17.46-14.65,17.37-1.86-.07-5.31-9-3.73-15.52,1.51-6.26,7.43-18.25,20-16.53,4.2.57,6.11,1.05,6.9,1.42.12-2.74.73-11.52,3.6-15.42,4.8-6.55,11-10.61,15.41-19.45,1.6-3.22,1-6.47,2.48-7.45C502.47,83.89,505.94,105.9,501.59,116.87Z"/></g><path id="Eye" class="cls-15" d="M342.87,140a5.23,5.23,0,0,1,1.25,4.09c-.28,4-3.27,7.31-7.31,7.31a7.31,7.31,0,0,1-7.31-7.31,7.2,7.2,0,0,1,7.31-7.31c3.84.07,6-2.79,10.1-4.27a17.16,17.16,0,0,0-3.77-5.46s19.44-17.49,17.18-25.76c-2.19,2.18-2.09,2.86-15.31,7.84s-15.16,14.12-12.44,21.8"/></g></svg>